<?xml version="1.0" encoding="UTF-8"?>
<svg width="158px" height="40px" version="1.1" viewBox="0 0 134 34" xmlns="http://www.w3.org/2000/svg">
<title>google_podcasts_badge_svg</title>
<desc>Created with Sketch.</desc>
<g fill="none" fill-rule="evenodd">
<rect x=".25" y=".25" width="133.5" height="33.5" rx="8" fill="#fff" stroke="#9AA0A6" stroke-width=".5"/>
<g transform="translate(5 5)">
<g transform="translate(1 1)" fill-rule="nonzero">
<polygon points="9.625 7 9.625 10.334 9.625 11.666 9.625 15 12.375 15 12.375 11.666 12.375 10.334 12.375 7" fill="#FAB908"/>
<circle cx="1.375" cy="10.25" r="1.375" fill="#0066D9"/>
<circle cx="1.375" cy="11.75" r="1.375" fill="#0066D9"/>
<rect y="10.25" width="2.75" height="1.5" fill="#0066D9"/>
<circle cx="20.625" cy="11.75" r="1.375" fill="#4285F4"/>
<circle cx="20.625" cy="10.25" r="1.375" fill="#4285F4"/>
<rect transform="translate(20.625 11) rotate(180) translate(-20.625 -11)" x="19.25" y="10.25" width="2.75" height="1.5" fill="#4285F4"/>
<circle cx="6.125" cy="14.75" r="1.375" fill="#EA4335"/>
<circle cx="6.125" cy="16.25" r="1.375" fill="#EA4335"/>
<rect x="4.75" y="14.75" width="2.75" height="1.5" fill="#EA4335"/>
<circle cx="6.125" cy="5.75" r="1.375" fill="#EA4335"/>
<circle cx="6.125" cy="10.625" r="1.375" fill="#EA4335"/>
<rect x="4.75" y="5.75" width="2.75" height="4.9062" fill="#EA4335"/>
<circle cx="15.875" cy="7.25" r="1.375" fill="#34A853"/>
<circle cx="15.875" cy="5.75" r="1.375" fill="#34A853"/>
<rect transform="translate(15.875 6.5) rotate(180) translate(-15.875 -6.5)" x="14.5" y="5.75" width="2.75" height="1.5" fill="#34A853"/>
<circle cx="11" cy="2.875" r="1.375" fill="#FAB908"/>
<circle cx="11" cy="1.375" r="1.375" fill="#FAB908"/>
<rect transform="translate(11 2.125) rotate(180) translate(-11 -2.125)" x="9.625" y="1.375" width="2.75" height="1.5" fill="#FAB908"/>
<circle cx="11" cy="20.625" r="1.375" fill="#FAB908"/>
<circle cx="11" cy="19.125" r="1.375" fill="#FAB908"/>
<rect transform="translate(11 19.875) rotate(180) translate(-11 -19.875)" x="9.625" y="19.125" width="2.75" height="1.5" fill="#FAB908"/>
<circle cx="15.875" cy="16.25" r="1.375" fill="#34A853"/>
<circle cx="15.875" cy="11.375" r="1.375" fill="#34A853"/>
<rect transform="translate(15.875 13.812) rotate(180) translate(-15.875 -13.812)" x="14.5" y="11.375" width="2.75" height="4.875" fill="#34A853"/>
<circle cx="11" cy="7" r="1.375" fill="#FAB908"/>
<circle cx="11" cy="15" r="1.375" fill="#FAB908"/>
</g>
</g>
<g transform="translate(35 16)">
<polygon points="0 0 91 0 91 14 0 14"/>
<path d="m44.916 10.5h-1.1449v-8.9102h3.0364c0.75497 0 1.4083 0.25096 1.96 0.75289 0.55171 0.50193 0.82756 1.1345 0.82756 1.8978 0 0.76326-0.27585 1.3958-0.82756 1.8978-0.55171 0.50193-1.205 0.75289-1.96 0.75289h-1.8916v3.6089zm0-4.704h1.9164c0.48119 0 0.86696-0.16178 1.1573-0.48533 0.29037-0.32356 0.43556-0.68029 0.43556-1.0702 0-0.38993-0.14518-0.74667-0.43556-1.0702-0.29037-0.32356-0.67615-0.48533-1.1573-0.48533h-1.9164v3.1111zm5.6284-0.65956c0.58904-0.62223 1.3398-0.93333 2.2524-0.93333 0.9126 0 1.6634 0.30903 2.2524 0.92711 0.58904 0.61808 0.88356 1.3917 0.88356 2.3209s-0.29452 1.7028-0.88356 2.3209c-0.58904 0.61808-1.3398 0.92711-2.2524 0.92711-0.9126 0-1.6634-0.30903-2.2524-0.92711-0.58904-0.61808-0.88356-1.3917-0.88356-2.3209s0.29452-1.7007 0.88356-2.3147zm0.84622 3.92c0.39822 0.39822 0.86696 0.59733 1.4062 0.59733 0.53926 0 1.0059-0.20118 1.4-0.60356 0.39408-0.40237 0.59111-0.9354 0.59111-1.5991s-0.19704-1.1967-0.59111-1.5991c-0.39408-0.40237-0.86074-0.60356-1.4-0.60356-0.53926 0-1.0059 0.20118-1.4 0.60356-0.39408 0.40237-0.59111 0.9354-0.59111 1.5991s0.19496 1.1988 0.58489 1.6053zm7.9928 1.6427c-0.78815 0-1.4684-0.31111-2.0409-0.93333-0.57245-0.62223-0.85867-1.3938-0.85867-2.3147s0.28622-1.6924 0.85867-2.3147c0.57245-0.62223 1.2527-0.93333 2.0409-0.93333 0.46459 0 0.88148 0.099555 1.2507 0.29867 0.36919 0.19911 0.64504 0.448 0.82756 0.74667h0.049778l-0.049778-0.84622v-2.8124h1.1449v8.9102h-1.0951v-0.84622h-0.049778c-0.18252 0.29867-0.45837 0.54755-0.82756 0.74667-0.36919 0.19911-0.78607 0.29867-1.2507 0.29867zm0.18667-1.0453c0.53926 0 0.99763-0.19911 1.3751-0.59733 0.37748-0.39822 0.56622-0.93333 0.56622-1.6053s-0.18874-1.2071-0.56622-1.6053c-0.37748-0.39822-0.83585-0.59733-1.3751-0.59733-0.53097 0-0.98726 0.20118-1.3689 0.60356s-0.57244 0.9354-0.57244 1.5991 0.19081 1.1967 0.57244 1.5991 0.83792 0.60356 1.3689 0.60356zm7.0097 1.0453c-0.9126 0-1.6634-0.30903-2.2524-0.92711-0.58904-0.61808-0.88356-1.3917-0.88356-2.3209s0.29452-1.7028 0.88356-2.3209c0.58904-0.61808 1.3398-0.92711 2.2524-0.92711 0.6803 0 1.2444 0.16592 1.6924 0.49778 0.448 0.33185 0.7757 0.75081 0.98311 1.2569l-1.0453 0.43556c-0.31526-0.76326-0.88355-1.1449-1.7049-1.1449-0.50608 0-0.952 0.20741-1.3378 0.62222s-0.57867 0.94163-0.57867 1.5804 0.19289 1.1656 0.57867 1.5804c0.38578 0.41482 0.8317 0.62222 1.3378 0.62222 0.85452 0 1.4436-0.38163 1.7671-1.1449l1.0204 0.43556c-0.20741 0.49778-0.54133 0.91466-1.0018 1.2507-0.46045 0.336-1.0308 0.504-1.7111 0.504zm5.4293 0c-0.64711 0-1.1884-0.18666-1.624-0.56-0.43556-0.37334-0.65333-0.86696-0.65333-1.4809 0-0.66371 0.25718-1.1843 0.77156-1.5618 0.51437-0.37748 1.149-0.56622 1.904-0.56622 0.672 0 1.2237 0.12444 1.6551 0.37333v-0.17422c0-0.448-0.15348-0.80681-0.46044-1.0764s-0.68444-0.40444-1.1324-0.40444c-0.33185 0-0.63259 0.078814-0.90222 0.23644s-0.45422 0.37333-0.55378 0.64711l-1.0453-0.448c0.14104-0.36504 0.41896-0.70311 0.83378-1.0142 0.41482-0.31111 0.96237-0.46667 1.6427-0.46667 0.77986 0 1.427 0.22815 1.9413 0.68444 0.51437 0.4563 0.77156 1.0993 0.77156 1.9289v3.6836h-1.0951v-0.84622h-0.049778c-0.4563 0.69689-1.1241 1.0453-2.0036 1.0453zm0.18667-1.0453c0.47289 0 0.90222-0.17629 1.288-0.52889 0.38578-0.35259 0.57867-0.76948 0.57867-1.2507-0.32356-0.26548-0.80889-0.39822-1.456-0.39822-0.55585 0-0.97481 0.1203-1.2569 0.36089-0.28208 0.24059-0.42311 0.52267-0.42311 0.84622 0 0.29867 0.12859 0.53511 0.38578 0.70933 0.25719 0.17422 0.5517 0.26133 0.88356 0.26133zm6.3128 1.0453c-0.6803 0-1.2424-0.16592-1.6862-0.49778-0.44385-0.33185-0.76948-0.74666-0.97689-1.2444l1.0204-0.42311c0.32356 0.76326 0.87526 1.1449 1.6551 1.1449 0.35674 0 0.64918-0.078814 0.87733-0.23644s0.34222-0.36504 0.34222-0.62222c0-0.39822-0.27792-0.66785-0.83378-0.80889l-1.232-0.29867c-0.38993-0.099556-0.75911-0.28829-1.1076-0.56622-0.34845-0.27793-0.52267-0.65333-0.52267-1.1262 0-0.53926 0.23852-0.97689 0.71556-1.3129 0.47704-0.336 1.0433-0.504 1.6987-0.504 0.53926 0 1.0204 0.12237 1.4436 0.36711 0.42311 0.24474 0.72592 0.59526 0.90844 1.0516l-0.99556 0.41067c-0.224-0.53926-0.68859-0.80889-1.3938-0.80889-0.34015 0-0.62637 0.070518-0.85867 0.21156-0.2323 0.14104-0.34844 0.33185-0.34844 0.57244 0 0.34845 0.26963 0.58489 0.80889 0.70933l1.2071 0.28622c0.57245 0.13274 0.99555 0.36089 1.2693 0.68444 0.27378 0.32356 0.41067 0.68859 0.41067 1.0951 0 0.54756-0.224 1.0039-0.672 1.3689-0.448 0.36504-1.0246 0.54756-1.7298 0.54756zm5.8275-0.099556c-0.63882 0-1.1262-0.17007-1.4622-0.51022-0.336-0.34015-0.504-0.82133-0.504-1.4436v-3.1982h-1.0702v-1.0453h1.0702v-1.8667h1.1449v1.8667h1.4933v1.0453h-1.4933v3.1111c0 0.66371 0.27378 0.99556 0.82133 0.99556 0.20741 0 0.38163-0.033185 0.52267-0.099556l0.39822 0.98311c-0.24889 0.10785-0.55585 0.16178-0.92089 0.16178zm4.0106 0.099556c-0.6803 0-1.2424-0.16592-1.6862-0.49778-0.44385-0.33185-0.76948-0.74666-0.97689-1.2444l1.0204-0.42311c0.32356 0.76326 0.87526 1.1449 1.6551 1.1449 0.35674 0 0.64918-0.078814 0.87733-0.23644s0.34222-0.36504 0.34222-0.62222c0-0.39822-0.27792-0.66785-0.83378-0.80889l-1.232-0.29867c-0.38993-0.099556-0.75911-0.28829-1.1076-0.56622-0.34845-0.27793-0.52267-0.65333-0.52267-1.1262 0-0.53926 0.23852-0.97689 0.71556-1.3129 0.47704-0.336 1.0433-0.504 1.6987-0.504 0.53926 0 1.0204 0.12237 1.4436 0.36711 0.42311 0.24474 0.72592 0.59526 0.90844 1.0516l-0.99556 0.41067c-0.224-0.53926-0.68859-0.80889-1.3938-0.80889-0.34015 0-0.62637 0.070518-0.85867 0.21156-0.2323 0.14104-0.34844 0.33185-0.34844 0.57244 0 0.34845 0.26963 0.58489 0.80889 0.70933l1.2071 0.28622c0.57245 0.13274 0.99555 0.36089 1.2693 0.68444 0.27378 0.32356 0.41067 0.68859 0.41067 1.0951 0 0.54756-0.224 1.0039-0.672 1.3689-0.448 0.36504-1.0246 0.54756-1.7298 0.54756z" fill="#3C4043"/>
<path d="m0.29167 5.5903c0-2.8194 2.3625-5.1042 5.1819-5.1042 1.5556 0 2.6639 0.6125 3.5 1.4097l-0.99167 0.98194c-0.59306-0.56389-1.4-1.0014-2.5083-1.0014-2.0514 0-3.6556 1.6528-3.6556 3.7042 0 2.0514 1.6042 3.7042 3.6556 3.7042 1.3319 0 2.0903-0.53472 2.5764-1.0208 0.39861-0.39861 0.66111-0.97222 0.75833-1.75h-3.3347v-1.3903h4.6958c0.048611 0.25278 0.077778 0.54444 0.077778 0.875 0 1.05-0.28194 2.3431-1.2056 3.2569-0.90417 0.93333-2.0514 1.4292-3.5681 1.4292-2.8194 0-5.1819-2.2847-5.1819-5.0944zm13.699-1.4097c1.8181 0 3.2958 1.3806 3.2958 3.2861 0 1.8958-1.4778 3.2861-3.2958 3.2861-1.8181 0-3.2958-1.3903-3.2958-3.2861 0-1.9056 1.4778-3.2861 3.2958-3.2861zm0 5.2694c0.99167 0 1.8569-0.81667 1.8569-1.9931 0-1.1861-0.86528-1.9931-1.8569-1.9931-1.0014 0-1.8569 0.80694-1.8569 1.9931 0 1.1764 0.86528 1.9931 1.8569 1.9931zm7.1944-5.2694c1.8181 0 3.2958 1.3806 3.2958 3.2861 0 1.8958-1.4778 3.2861-3.2958 3.2861-1.8181 0-3.2958-1.3903-3.2958-3.2861 0-1.9056 1.4778-3.2861 3.2958-3.2861zm0 5.2694c0.99167 0 1.8569-0.81667 1.8569-1.9931 0-1.1861-0.85556-1.9931-1.8569-1.9931s-1.8569 0.80694-1.8569 1.9931c0 1.1764 0.86528 1.9931 1.8569 1.9931zm8.8278-5.1625h1.3806v5.9014c0 2.4306-1.4292 3.4222-3.1208 3.4222-1.5944 0-2.5569-1.0694-2.9167-1.9444l1.2542-0.525c0.22361 0.53472 0.76806 1.1667 1.6528 1.1667 1.0792 0 1.75-0.67083 1.75-1.925v-0.47639h-0.048611c-0.32083 0.39861-0.94306 0.74861-1.7306 0.74861-1.6431 0-3.15-1.4389-3.15-3.2764 0-1.8569 1.5069-3.2958 3.15-3.2958 0.7875 0 1.4097 0.35 1.7306 0.73889h0.048611v-0.53472zm-1.6528 5.075c0.98194 0 1.7597-0.82639 1.75-1.9833 0-1.1569-0.76806-2.0028-1.75-2.0028-0.99167 0-1.8278 0.84583-1.8278 2.0028 0 1.1472 0.83611 1.9833 1.8278 1.9833zm4.0153 1.1667v-9.6542h1.4389v9.6542h-1.4389zm5.3958-1.0792c0.73889 0 1.2444-0.35972 1.6236-0.90417l1.1181 0.74861c-0.36944 0.53472-1.2347 1.4583-2.7417 1.4583-1.8667 0-3.2569-1.4486-3.2569-3.2861 0-1.9542 1.4097-3.2861 3.1014-3.2861 1.7014 0 2.5375 1.3514 2.8097 2.0903l0.14583 0.36944-4.3944 1.8181c0.34028 0.65139 0.85556 0.99167 1.5944 0.99167zm-0.10694-4.0056c-0.73889 0-1.7597 0.65139-1.7208 1.9153l2.9361-1.2153c-0.15556-0.41806-0.64167-0.7-1.2153-0.7z" fill="#3C4043" fill-rule="nonzero"/>
</g>
<path d="m36.591 12.31h3.0322v0.68994h-3.8804v-6.3984h0.84814v5.7085zm4.9755 0.68994h-0.81299v-4.7549h0.81299v4.7549zm-0.87891-6.0161c0-0.13184 0.040283-0.24316 0.12085-0.33398 0.080567-0.090821 0.19995-0.13623 0.35815-0.13623 0.1582 0 0.27832 0.04541 0.36035 0.13623 0.082032 0.090821 0.12305 0.20215 0.12305 0.33398s-0.041015 0.2417-0.12305 0.32959c-0.082032 0.087891-0.20215 0.13184-0.36035 0.13184-0.1582 0-0.27759-0.043945-0.35815-0.13184-0.080567-0.087891-0.12085-0.19775-0.12085-0.32959zm5.1732 4.7549c0-0.21973-0.082763-0.39038-0.24829-0.51196-0.16553-0.12158-0.4541-0.22632-0.86572-0.31421-0.41162-0.087891-0.73828-0.19336-0.97998-0.31641s-0.42041-0.26953-0.53613-0.43945c-0.11572-0.16992-0.17358-0.37207-0.17358-0.60645 0-0.38965 0.16479-0.71924 0.49438-0.98877s0.75073-0.4043 1.2634-0.4043c0.53907 0 0.97632 0.13916 1.3118 0.41748 0.33545 0.27832 0.50317 0.63428 0.50317 1.0679h-0.81738c0-0.22266-0.094482-0.41455-0.28345-0.57568s-0.427-0.2417-0.71411-0.2417c-0.2959 0-0.52734 0.064452-0.69434 0.19336-0.16699 0.12891-0.25049 0.29736-0.25049 0.50537 0 0.19629 0.077636 0.34424 0.23291 0.44385 0.15527 0.09961 0.43579 0.19482 0.84155 0.28564 0.40576 0.090821 0.73462 0.19922 0.98657 0.3252s0.43872 0.27759 0.5603 0.45483c0.12158 0.17725 0.18237 0.39331 0.18237 0.64819 0 0.42481-0.16992 0.76538-0.50977 1.0217-0.33985 0.25635-0.78076 0.38452-1.3228 0.38452-0.38086 0-0.71777-0.067382-1.0107-0.20215s-0.52222-0.323-0.68774-0.5647c-0.16553-0.2417-0.24829-0.50317-0.24829-0.78442h0.81299c0.014648 0.27246 0.12378 0.48852 0.32739 0.64819 0.20361 0.15967 0.47241 0.2395 0.8064 0.2395 0.30762 0 0.55444-0.062255 0.74048-0.18677 0.18604-0.12451 0.27905-0.29077 0.27905-0.49878zm3.2001-4.645v1.1514h0.8877v0.62842h-0.8877v2.9487c0 0.19043 0.03955 0.33325 0.11865 0.42847 0.079102 0.095215 0.21387 0.14282 0.4043 0.14282 0.09375 0 0.22266-0.017578 0.38672-0.052734v0.65918c-0.21387 0.058594-0.42187 0.087891-0.62402 0.087891-0.36328 0-0.63721-0.10986-0.82178-0.32959-0.18457-0.21973-0.27686-0.53174-0.27686-0.93604v-2.9487h-0.86572v-0.62842h0.86572v-1.1514h0.81299zm4.0351 5.9941c-0.64453 0-1.1689-0.21167-1.5732-0.63501-0.4043-0.42334-0.60645-0.9895-0.60645-1.6985v-0.14941c0-0.47168 0.090087-0.89282 0.27026-1.2634 0.18018-0.37061 0.43213-0.66064 0.75586-0.87012 0.32373-0.20947 0.67456-0.31421 1.0525-0.31421 0.61817 0 1.0986 0.20361 1.4414 0.61084 0.34278 0.40723 0.51416 0.99023 0.51416 1.749v0.33838h-3.2212c0.011719 0.46875 0.14868 0.84741 0.41089 1.136 0.26221 0.28858 0.59546 0.43286 0.99976 0.43286 0.28711 0 0.53027-0.058593 0.72949-0.17578 0.19922-0.11719 0.37353-0.27246 0.52295-0.46582l0.49658 0.38672c-0.39844 0.61231-0.99609 0.91846-1.793 0.91846zm-0.10107-4.2627c-0.32813 0-0.60351 0.11938-0.82617 0.35815-0.22266 0.23877-0.36035 0.57348-0.41309 1.0042h2.3818v-0.061523c-0.023438-0.41309-0.13476-0.73315-0.33398-0.96021-0.19922-0.22705-0.46875-0.34058-0.80859-0.34058zm3.89-0.58008l0.026367 0.59766c0.36328-0.45703 0.83789-0.68555 1.4238-0.68555 1.0049 0 1.5117 0.56689 1.5205 1.7007v3.1421h-0.81299v-3.1465c-0.0029297-0.34278-0.081298-0.59619-0.23511-0.76025-0.15381-0.16406-0.39331-0.24609-0.71851-0.24609-0.26367 0-0.49512 0.070312-0.69434 0.21094-0.19922 0.14063-0.35449 0.32519-0.46582 0.55371v3.3882h-0.81299v-4.7549h0.76904zm6.6595 2.3335c0-0.46582 0.091552-0.88476 0.27466-1.2568 0.18311-0.37207 0.43799-0.65918 0.76465-0.86133s0.69946-0.30322 1.1184-0.30322c0.64746 0 1.1711 0.22412 1.571 0.67236 0.3999 0.44824 0.59985 1.0444 0.59985 1.7886v0.057129c0 0.46289-0.088622 0.87817-0.26587 1.2458s-0.43066 0.65405-0.76025 0.85913c-0.32959 0.20508-0.70825 0.30762-1.136 0.30762-0.64453 0-1.1667-0.22412-1.5667-0.67236-0.3999-0.44824-0.59985-1.0415-0.59985-1.7798v-0.057129zm0.81738 0.09668c0 0.52735 0.12231 0.95068 0.36694 1.27 0.24463 0.31934 0.57202 0.479 0.98218 0.479 0.41309 0 0.74121-0.16186 0.98438-0.4856s0.36475-0.7771 0.36475-1.3601c0-0.52149-0.12378-0.94409-0.37134-1.2678-0.24756-0.32373-0.57641-0.4856-0.98657-0.4856-0.40137 0-0.7251 0.15967-0.97119 0.479-0.2461 0.31934-0.36914 0.77636-0.36914 1.3711zm5.5248-2.4302l0.026367 0.59766c0.36328-0.45703 0.83789-0.68555 1.4238-0.68555 1.0049 0 1.5117 0.56689 1.5205 1.7007v3.1421h-0.81299v-3.1465c-0.0029297-0.34278-0.081298-0.59619-0.23511-0.76025s-0.39331-0.24609-0.71851-0.24609c-0.26367 0-0.49512 0.070312-0.69434 0.21094-0.19922 0.14063-0.35449 0.32519-0.46582 0.55371v3.3882h-0.81299v-4.7549h0.76904z" fill="#5F6368"/>
</g>
</svg>