<?xml version="1.0" encoding="utf-8"?>
<svg width="158px" height="40px" version="1.1" viewBox="0 0 134 34" xmlns="http://www.w3.org/2000/svg">
  <defs>
    <pattern id="pattern-0" x="0" y="0" width="25" height="25" patternUnits="userSpaceOnUse" viewBox="0 0 100 100">
      <rect x="0" y="0" width="50" height="100" style="fill: black;"/>
    </pattern>
  </defs>
  <title>google_podcasts_badge_svg</title>
  <desc>Created with Sketch.</desc>
  <rect x="0.25" y="0.25" width="133.5" height="33.5" rx="8.468" stroke-width=".5" fill-rule="evenodd" ry="8.468" style="fill: rgb(248, 182, 0); stroke: rgb(0, 0, 0);"/>
  <polygon points="35 16 126 16 126 30 35 30" fill="none" fill-rule="evenodd"/>
  <g transform="matrix(0.116091, 0, 0, -0.116107, -56.661514, 98.923775)" id="g-4">
    <path d="M 595.355 642.95 C 595.355 636.425 593.071 630.879 588.504 626.312 C 583.937 621.745 578.39 619.461 571.865 619.461 C 565.34 619.461 559.794 621.745 555.227 626.312 C 550.659 630.879 548.376 636.425 548.376 642.95 C 548.376 649.475 550.659 655.021 555.227 659.588 C 559.794 664.156 565.34 666.44 571.865 666.44 C 578.39 666.44 583.937 664.156 588.504 659.588 C 593.071 655.021 595.355 649.475 595.355 642.95 Z M 657.993 627.903 C 658.156 625.619 657.463 623.661 655.914 622.03 C 654.446 620.317 652.529 619.461 650.164 619.461 L 633.648 619.461 C 631.609 619.461 629.855 620.134 628.387 621.48 C 626.919 622.825 626.103 624.518 625.94 626.556 C 624.146 645.234 616.622 661.2 603.368 674.453 C 590.115 687.706 574.149 695.23 555.471 697.024 C 553.433 697.187 551.74 698.003 550.395 699.471 C 549.049 700.94 548.376 702.693 548.376 704.732 L 548.376 721.248 C 548.376 723.613 549.232 725.53 550.945 726.998 C 552.332 728.384 554.085 729.077 556.206 729.077 L 556.818 729.077 C 569.867 728.018 582.346 724.734 594.254 719.229 C 606.162 713.724 616.724 706.322 625.94 697.024 C 635.238 687.809 642.64 677.246 648.145 665.338 C 653.65 653.431 656.933 640.952 657.993 627.903 Z M 720.632 627.658 C 720.795 625.456 720.061 623.539 718.43 621.908 C 716.962 620.277 715.086 619.461 712.802 619.461 L 695.308 619.461 C 693.187 619.461 691.372 620.175 689.863 621.602 C 688.355 623.029 687.559 624.762 687.477 626.801 C 686.499 644.337 682.38 660.996 675.121 676.778 C 667.862 692.559 658.421 706.261 646.799 717.884 C 635.177 729.506 621.474 738.946 605.693 746.205 C 589.911 753.464 573.252 757.624 555.716 758.684 C 553.677 758.765 551.944 759.561 550.517 761.07 C 549.09 762.578 548.376 764.352 548.376 766.391 L 548.376 783.886 C 548.376 786.17 549.192 788.046 550.823 789.514 C 552.291 790.982 554.085 791.716 556.206 791.716 L 556.573 791.716 C 577.942 790.655 598.393 785.762 617.927 777.035 C 637.461 768.308 654.812 756.318 669.983 741.067 C 685.235 725.896 697.224 708.545 705.951 689.011 C 714.678 669.478 719.571 649.027 720.632 627.658 Z" id="path-4" style="fill: rgba(0, 0, 0, 0.8); stroke: rgb(124, 127, 111);"/>
  </g>
  <path d="M 37.529 23.65 L 36.899 23.65 L 36.899 26.76 L 35.419 26.76 L 35.419 18.81 L 37.849 18.81 C 38.389 18.81 38.852 18.863 39.239 18.97 C 39.626 19.083 39.942 19.243 40.189 19.45 C 40.436 19.65 40.619 19.89 40.739 20.17 C 40.852 20.45 40.909 20.757 40.909 21.09 C 40.909 21.363 40.869 21.617 40.789 21.85 C 40.709 22.09 40.596 22.307 40.449 22.5 C 40.302 22.693 40.119 22.863 39.899 23.01 C 39.679 23.157 39.432 23.277 39.159 23.37 C 39.346 23.477 39.506 23.627 39.639 23.82 L 41.629 26.76 L 40.299 26.76 C 40.172 26.76 40.062 26.733 39.969 26.68 C 39.882 26.633 39.809 26.56 39.749 26.46 L 38.069 23.92 C 38.009 23.82 37.942 23.75 37.869 23.71 C 37.789 23.67 37.676 23.65 37.529 23.65 Z M 36.899 19.95 L 36.899 22.59 L 37.829 22.59 C 38.102 22.59 38.342 22.557 38.549 22.49 C 38.762 22.417 38.936 22.32 39.069 22.2 C 39.202 22.073 39.302 21.927 39.369 21.76 C 39.429 21.593 39.459 21.41 39.459 21.21 C 39.459 20.803 39.329 20.493 39.069 20.28 C 38.802 20.06 38.396 19.95 37.849 19.95 L 36.899 19.95 ZM 47.204 19.56 L 46.844 20.25 C 46.797 20.33 46.75 20.387 46.704 20.42 C 46.65 20.453 46.587 20.47 46.514 20.47 C 46.44 20.47 46.357 20.443 46.264 20.39 C 46.17 20.33 46.06 20.267 45.934 20.2 C 45.814 20.127 45.67 20.063 45.504 20.01 C 45.337 19.95 45.137 19.92 44.904 19.92 C 44.704 19.92 44.527 19.947 44.374 20 C 44.22 20.047 44.09 20.113 43.984 20.2 C 43.884 20.293 43.807 20.4 43.754 20.52 C 43.7 20.64 43.674 20.773 43.674 20.92 C 43.674 21.113 43.727 21.27 43.834 21.39 C 43.94 21.517 44.077 21.623 44.244 21.71 C 44.417 21.797 44.614 21.877 44.834 21.95 C 45.054 22.017 45.28 22.09 45.514 22.17 C 45.74 22.25 45.964 22.343 46.184 22.45 C 46.404 22.55 46.6 22.68 46.774 22.84 C 46.947 23 47.084 23.197 47.184 23.43 C 47.29 23.657 47.344 23.937 47.344 24.27 C 47.344 24.63 47.284 24.967 47.164 25.28 C 47.037 25.593 46.857 25.867 46.624 26.1 C 46.384 26.333 46.094 26.517 45.754 26.65 C 45.414 26.783 45.024 26.85 44.584 26.85 C 44.33 26.85 44.08 26.823 43.834 26.77 C 43.587 26.723 43.354 26.653 43.134 26.56 C 42.907 26.467 42.694 26.357 42.494 26.23 C 42.3 26.103 42.127 25.96 41.974 25.8 L 42.404 25.09 C 42.444 25.043 42.49 25 42.544 24.96 C 42.604 24.927 42.667 24.91 42.734 24.91 C 42.827 24.91 42.927 24.947 43.034 25.02 C 43.14 25.1 43.267 25.187 43.414 25.28 C 43.554 25.367 43.724 25.45 43.924 25.53 C 44.117 25.603 44.35 25.64 44.624 25.64 C 45.05 25.64 45.377 25.54 45.604 25.34 C 45.837 25.14 45.954 24.853 45.954 24.48 C 45.954 24.267 45.9 24.097 45.794 23.97 C 45.694 23.837 45.557 23.723 45.384 23.63 C 45.21 23.543 45.014 23.47 44.794 23.41 C 44.574 23.343 44.35 23.273 44.124 23.2 C 43.897 23.127 43.674 23.04 43.454 22.94 C 43.234 22.833 43.037 22.7 42.864 22.54 C 42.69 22.373 42.55 22.167 42.444 21.92 C 42.344 21.673 42.294 21.367 42.294 21 C 42.294 20.713 42.35 20.43 42.464 20.15 C 42.577 19.877 42.747 19.633 42.974 19.42 C 43.194 19.207 43.464 19.037 43.784 18.91 C 44.11 18.783 44.48 18.72 44.894 18.72 C 45.36 18.72 45.794 18.793 46.194 18.94 C 46.587 19.087 46.924 19.293 47.204 19.56 ZM 53.105 19.56 L 52.745 20.25 C 52.699 20.33 52.652 20.387 52.605 20.42 C 52.552 20.453 52.489 20.47 52.415 20.47 C 52.342 20.47 52.259 20.443 52.165 20.39 C 52.072 20.33 51.962 20.267 51.835 20.2 C 51.715 20.127 51.572 20.063 51.405 20.01 C 51.239 19.95 51.039 19.92 50.805 19.92 C 50.605 19.92 50.429 19.947 50.275 20 C 50.122 20.047 49.992 20.113 49.885 20.2 C 49.785 20.293 49.709 20.4 49.655 20.52 C 49.602 20.64 49.575 20.773 49.575 20.92 C 49.575 21.113 49.629 21.27 49.735 21.39 C 49.842 21.517 49.979 21.623 50.145 21.71 C 50.319 21.797 50.515 21.877 50.735 21.95 C 50.955 22.017 51.182 22.09 51.415 22.17 C 51.642 22.25 51.865 22.343 52.085 22.45 C 52.305 22.55 52.502 22.68 52.675 22.84 C 52.849 23 52.985 23.197 53.085 23.43 C 53.192 23.657 53.245 23.937 53.245 24.27 C 53.245 24.63 53.185 24.967 53.065 25.28 C 52.939 25.593 52.759 25.867 52.525 26.1 C 52.285 26.333 51.995 26.517 51.655 26.65 C 51.315 26.783 50.925 26.85 50.485 26.85 C 50.232 26.85 49.982 26.823 49.735 26.77 C 49.489 26.723 49.255 26.653 49.035 26.56 C 48.809 26.467 48.595 26.357 48.395 26.23 C 48.202 26.103 48.029 25.96 47.875 25.8 L 48.305 25.09 C 48.345 25.043 48.392 25 48.445 24.96 C 48.505 24.927 48.569 24.91 48.635 24.91 C 48.729 24.91 48.829 24.947 48.935 25.02 C 49.042 25.1 49.169 25.187 49.315 25.28 C 49.455 25.367 49.625 25.45 49.825 25.53 C 50.019 25.603 50.252 25.64 50.525 25.64 C 50.952 25.64 51.279 25.54 51.505 25.34 C 51.739 25.14 51.855 24.853 51.855 24.48 C 51.855 24.267 51.802 24.097 51.695 23.97 C 51.595 23.837 51.459 23.723 51.285 23.63 C 51.112 23.543 50.915 23.47 50.695 23.41 C 50.475 23.343 50.252 23.273 50.025 23.2 C 49.799 23.127 49.575 23.04 49.355 22.94 C 49.135 22.833 48.939 22.7 48.765 22.54 C 48.592 22.373 48.452 22.167 48.345 21.92 C 48.245 21.673 48.195 21.367 48.195 21 C 48.195 20.713 48.252 20.43 48.365 20.15 C 48.479 19.877 48.649 19.633 48.875 19.42 C 49.095 19.207 49.365 19.037 49.685 18.91 C 50.012 18.783 50.382 18.72 50.795 18.72 C 51.262 18.72 51.695 18.793 52.095 18.94 C 52.489 19.087 52.825 19.293 53.105 19.56 Z" transform="matrix(1, 0, 0, 1, 0, 0)" style="fill: rgb(51, 51, 51); white-space: pre;"/>
  <path d="M 36.64 6.72 L 36.64 13.07 L 39.74 13.07 L 39.74 13.89 L 35.67 13.89 L 35.67 6.72 L 36.64 6.72 ZM 40.77 8.82 L 41.66 8.82 L 41.66 13.89 L 40.77 13.89 L 40.77 8.82 Z M 41.86 7.23 C 41.86 7.317 41.843 7.4 41.81 7.48 C 41.77 7.553 41.723 7.62 41.67 7.68 C 41.61 7.733 41.543 7.777 41.47 7.81 C 41.39 7.843 41.306 7.86 41.22 7.86 C 41.133 7.86 41.053 7.843 40.98 7.81 C 40.906 7.777 40.84 7.733 40.78 7.68 C 40.72 7.62 40.673 7.553 40.64 7.48 C 40.606 7.4 40.59 7.317 40.59 7.23 C 40.59 7.143 40.606 7.063 40.64 6.99 C 40.673 6.91 40.72 6.84 40.78 6.78 C 40.84 6.72 40.906 6.673 40.98 6.64 C 41.053 6.613 41.133 6.6 41.22 6.6 C 41.306 6.6 41.39 6.613 41.47 6.64 C 41.543 6.673 41.61 6.72 41.67 6.78 C 41.723 6.84 41.77 6.91 41.81 6.99 C 41.843 7.063 41.86 7.143 41.86 7.23 ZM 46.33 9.34 L 46.13 9.66 C 46.09 9.733 46.03 9.77 45.95 9.77 C 45.896 9.77 45.836 9.753 45.77 9.72 C 45.71 9.68 45.633 9.637 45.54 9.59 C 45.453 9.543 45.343 9.503 45.21 9.47 C 45.083 9.43 44.936 9.41 44.77 9.41 C 44.616 9.41 44.48 9.43 44.36 9.47 C 44.24 9.503 44.136 9.557 44.05 9.63 C 43.97 9.69 43.906 9.767 43.86 9.86 C 43.813 9.947 43.79 10.04 43.79 10.14 C 43.79 10.273 43.826 10.383 43.9 10.47 C 43.98 10.557 44.08 10.63 44.2 10.69 C 44.326 10.757 44.466 10.813 44.62 10.86 C 44.773 10.907 44.933 10.96 45.1 11.02 C 45.266 11.073 45.426 11.133 45.58 11.2 C 45.74 11.267 45.88 11.35 46 11.45 C 46.126 11.55 46.226 11.673 46.3 11.82 C 46.38 11.967 46.42 12.14 46.42 12.34 C 46.42 12.573 46.376 12.79 46.29 12.99 C 46.21 13.19 46.086 13.36 45.92 13.5 C 45.76 13.647 45.56 13.763 45.32 13.85 C 45.08 13.93 44.806 13.97 44.5 13.97 C 44.146 13.97 43.826 13.913 43.54 13.8 C 43.253 13.68 43.01 13.53 42.81 13.35 L 43.02 13.01 C 43.046 12.97 43.076 12.94 43.11 12.92 C 43.15 12.893 43.2 12.88 43.26 12.88 C 43.32 12.88 43.383 12.903 43.45 12.95 C 43.516 12.997 43.596 13.047 43.69 13.1 C 43.783 13.16 43.9 13.213 44.04 13.26 C 44.173 13.307 44.34 13.33 44.54 13.33 C 44.72 13.33 44.873 13.307 45 13.26 C 45.126 13.213 45.236 13.153 45.33 13.08 C 45.416 13 45.48 12.913 45.52 12.82 C 45.56 12.713 45.58 12.603 45.58 12.49 C 45.58 12.357 45.543 12.243 45.47 12.15 C 45.39 12.057 45.29 11.977 45.17 11.91 C 45.043 11.843 44.903 11.787 44.75 11.74 C 44.59 11.693 44.426 11.643 44.26 11.59 C 44.1 11.537 43.94 11.477 43.78 11.41 C 43.62 11.343 43.476 11.257 43.35 11.15 C 43.23 11.043 43.133 10.917 43.06 10.77 C 42.986 10.617 42.95 10.43 42.95 10.21 C 42.95 10.017 42.99 9.833 43.07 9.66 C 43.15 9.48 43.266 9.323 43.42 9.19 C 43.573 9.05 43.76 8.94 43.98 8.86 C 44.2 8.78 44.456 8.74 44.75 8.74 C 45.083 8.74 45.38 8.793 45.64 8.9 C 45.906 9.007 46.136 9.153 46.33 9.34 ZM 49.109 13.97 C 48.709 13.97 48.399 13.857 48.179 13.63 C 47.966 13.41 47.859 13.09 47.859 12.67 L 47.859 9.57 L 47.249 9.57 C 47.196 9.57 47.153 9.553 47.119 9.52 C 47.079 9.487 47.059 9.44 47.059 9.38 L 47.059 9.02 L 47.889 8.91 L 48.099 7.35 C 48.106 7.297 48.126 7.257 48.159 7.23 C 48.199 7.197 48.246 7.18 48.299 7.18 L 48.749 7.18 L 48.749 8.93 L 50.199 8.93 L 50.199 9.57 L 48.749 9.57 L 48.749 12.61 C 48.749 12.823 48.799 12.98 48.899 13.08 C 49.006 13.187 49.139 13.24 49.299 13.24 C 49.393 13.24 49.476 13.227 49.549 13.2 C 49.616 13.18 49.676 13.153 49.729 13.12 C 49.776 13.087 49.816 13.06 49.849 13.04 C 49.883 13.013 49.913 13 49.939 13 C 49.993 13 50.036 13.027 50.069 13.08 L 50.329 13.51 C 50.176 13.65 49.993 13.763 49.779 13.85 C 49.559 13.93 49.336 13.97 49.109 13.97 ZM 53.299 8.74 C 53.606 8.74 53.889 8.793 54.149 8.9 C 54.403 9 54.623 9.147 54.809 9.34 C 54.996 9.533 55.143 9.77 55.249 10.05 C 55.349 10.33 55.399 10.65 55.399 11.01 C 55.399 11.15 55.386 11.243 55.359 11.29 C 55.333 11.337 55.276 11.36 55.189 11.36 L 51.819 11.36 C 51.826 11.68 51.869 11.957 51.949 12.19 C 52.029 12.43 52.139 12.63 52.279 12.79 C 52.419 12.95 52.586 13.067 52.779 13.14 C 52.973 13.22 53.189 13.26 53.429 13.26 C 53.656 13.26 53.849 13.233 54.009 13.18 C 54.169 13.127 54.306 13.07 54.419 13.01 C 54.539 12.957 54.639 12.903 54.719 12.85 C 54.793 12.797 54.859 12.77 54.919 12.77 C 54.993 12.77 55.049 12.8 55.089 12.86 L 55.339 13.18 C 55.233 13.313 55.103 13.43 54.949 13.53 C 54.796 13.63 54.629 13.71 54.449 13.77 C 54.276 13.83 54.096 13.877 53.909 13.91 C 53.723 13.943 53.539 13.96 53.359 13.96 C 53.006 13.96 52.683 13.9 52.389 13.78 C 52.096 13.66 51.839 13.487 51.619 13.26 C 51.406 13.033 51.239 12.75 51.119 12.41 C 50.999 12.077 50.939 11.69 50.939 11.25 C 50.939 10.897 50.993 10.567 51.099 10.26 C 51.213 9.96 51.369 9.697 51.569 9.47 C 51.769 9.243 52.019 9.067 52.319 8.94 C 52.613 8.807 52.939 8.74 53.299 8.74 Z M 53.319 9.4 C 52.893 9.4 52.556 9.523 52.309 9.77 C 52.063 10.017 51.909 10.363 51.849 10.81 L 54.609 10.81 C 54.609 10.597 54.579 10.407 54.519 10.24 C 54.466 10.067 54.383 9.917 54.269 9.79 C 54.163 9.663 54.029 9.567 53.869 9.5 C 53.709 9.433 53.526 9.4 53.319 9.4 ZM 57.429 13.89 L 56.539 13.89 L 56.539 8.82 L 57.069 8.82 C 57.196 8.82 57.276 8.883 57.309 9.01 L 57.379 9.56 C 57.599 9.313 57.846 9.117 58.119 8.97 C 58.386 8.817 58.699 8.74 59.059 8.74 C 59.339 8.74 59.582 8.787 59.789 8.88 C 60.002 8.973 60.179 9.103 60.319 9.27 C 60.466 9.437 60.572 9.64 60.639 9.88 C 60.719 10.113 60.759 10.373 60.759 10.66 L 60.759 13.89 L 59.859 13.89 L 59.859 10.66 C 59.859 10.28 59.772 9.983 59.599 9.77 C 59.426 9.557 59.159 9.45 58.799 9.45 C 58.539 9.45 58.292 9.513 58.059 9.64 C 57.832 9.773 57.622 9.947 57.429 10.16 L 57.429 13.89 ZM 65.009 13.89 L 63.369 8.82 L 64.069 8.82 C 64.142 8.82 64.202 8.84 64.249 8.88 C 64.295 8.913 64.325 8.957 64.339 9.01 L 65.319 12.27 C 65.345 12.39 65.369 12.507 65.389 12.62 C 65.415 12.733 65.435 12.843 65.449 12.95 C 65.475 12.843 65.505 12.733 65.539 12.62 C 65.572 12.507 65.609 12.39 65.649 12.27 L 66.719 8.99 C 66.732 8.937 66.759 8.893 66.799 8.86 C 66.839 8.827 66.892 8.81 66.959 8.81 L 67.339 8.81 C 67.412 8.81 67.469 8.827 67.509 8.86 C 67.555 8.893 67.585 8.937 67.599 8.99 L 68.639 12.27 C 68.679 12.383 68.712 12.497 68.739 12.61 C 68.772 12.73 68.802 12.843 68.829 12.95 C 68.842 12.843 68.862 12.73 68.889 12.61 C 68.915 12.483 68.942 12.37 68.969 12.27 L 69.969 9.01 C 69.982 8.957 70.012 8.913 70.059 8.88 C 70.105 8.84 70.159 8.82 70.219 8.82 L 70.889 8.82 L 69.259 13.89 L 68.549 13.89 C 68.462 13.89 68.402 13.833 68.369 13.72 L 67.249 10.29 C 67.222 10.21 67.202 10.13 67.189 10.05 C 67.169 9.97 67.149 9.893 67.129 9.82 C 67.115 9.893 67.102 9.973 67.089 10.06 C 67.069 10.14 67.045 10.217 67.019 10.29 L 65.879 13.72 C 65.845 13.833 65.779 13.89 65.679 13.89 L 65.009 13.89 ZM 71.788 8.82 L 72.678 8.82 L 72.678 13.89 L 71.788 13.89 L 71.788 8.82 Z M 72.878 7.23 C 72.878 7.317 72.862 7.4 72.828 7.48 C 72.788 7.553 72.742 7.62 72.688 7.68 C 72.628 7.733 72.562 7.777 72.488 7.81 C 72.408 7.843 72.325 7.86 72.238 7.86 C 72.152 7.86 72.072 7.843 71.998 7.81 C 71.925 7.777 71.858 7.733 71.798 7.68 C 71.738 7.62 71.692 7.553 71.658 7.48 C 71.625 7.4 71.608 7.317 71.608 7.23 C 71.608 7.143 71.625 7.063 71.658 6.99 C 71.692 6.91 71.738 6.84 71.798 6.78 C 71.858 6.72 71.925 6.673 71.998 6.64 C 72.072 6.613 72.152 6.6 72.238 6.6 C 72.325 6.6 72.408 6.613 72.488 6.64 C 72.562 6.673 72.628 6.72 72.688 6.78 C 72.742 6.84 72.788 6.91 72.828 6.99 C 72.862 7.063 72.878 7.143 72.878 7.23 ZM 75.788 13.97 C 75.388 13.97 75.078 13.857 74.858 13.63 C 74.645 13.41 74.538 13.09 74.538 12.67 L 74.538 9.57 L 73.928 9.57 C 73.875 9.57 73.832 9.553 73.798 9.52 C 73.758 9.487 73.738 9.44 73.738 9.38 L 73.738 9.02 L 74.568 8.91 L 74.778 7.35 C 74.785 7.297 74.805 7.257 74.838 7.23 C 74.878 7.197 74.925 7.18 74.978 7.18 L 75.428 7.18 L 75.428 8.93 L 76.878 8.93 L 76.878 9.57 L 75.428 9.57 L 75.428 12.61 C 75.428 12.823 75.478 12.98 75.578 13.08 C 75.685 13.187 75.818 13.24 75.978 13.24 C 76.072 13.24 76.155 13.227 76.228 13.2 C 76.295 13.18 76.355 13.153 76.408 13.12 C 76.455 13.087 76.495 13.06 76.528 13.04 C 76.562 13.013 76.592 13 76.618 13 C 76.672 13 76.715 13.027 76.748 13.08 L 77.008 13.51 C 76.855 13.65 76.672 13.763 76.458 13.85 C 76.238 13.93 76.015 13.97 75.788 13.97 ZM 78.868 13.89 L 77.978 13.89 L 77.978 6.52 L 78.868 6.52 L 78.868 9.51 C 79.088 9.277 79.328 9.09 79.588 8.95 C 79.848 8.81 80.151 8.74 80.498 8.74 C 80.778 8.74 81.021 8.787 81.228 8.88 C 81.441 8.973 81.618 9.103 81.758 9.27 C 81.905 9.437 82.011 9.64 82.078 9.88 C 82.158 10.113 82.198 10.373 82.198 10.66 L 82.198 13.89 L 81.298 13.89 L 81.298 10.66 C 81.298 10.28 81.211 9.983 81.038 9.77 C 80.865 9.557 80.598 9.45 80.238 9.45 C 79.978 9.45 79.731 9.513 79.498 9.64 C 79.271 9.773 79.061 9.947 78.868 10.16 L 78.868 13.89 Z" transform="matrix(1, 0, 0, 1, 0, 0)" style="fill: rgb(255, 255, 255); white-space: pre;"/>
</svg>